<?xml version="1.0" encoding="UTF-8"?>
<svg id="Layer_1" xmlns="http://www.w3.org/2000/svg" version="1.1" viewBox="0 0 1080 1440">
  <!-- Generator: Adobe Illustrator 30.0.0, SVG Export Plug-In . SVG Version: 2.1.1 Build 123)  -->
  <defs>
    <style>
      .st0 {
        fill: #008081;
      }
    </style>
  </defs>
  <path class="st0" d="M87.47,608.89c0,11.48,2.32,21.97,6.96,31.48,4.63,9.52,10.81,17.69,18.51,24.52,7.7,6.84,16.47,12.11,26.29,15.8,9.82,3.7,19.93,5.54,30.3,5.54,12.1,0,23.11-1.89,33.01-5.66,9.91-3.77,18.43-9.08,25.59-15.92,7.15-6.84,12.69-14.98,16.63-24.4,3.93-9.43,5.89-19.89,5.89-31.37v-82.77h8.96v82.77c0,12.89-2.29,24.64-6.85,35.25-4.57,10.61-10.98,19.69-19.24,27.24-8.26,7.54-18.26,13.36-29.99,17.45-11.73,4.09-24.68,6.13-38.84,6.13s-27.31-2.08-38.96-6.25c-11.65-4.16-21.64-10.02-29.99-17.57-8.34-7.55-14.8-16.58-19.36-27.12-4.57-10.53-6.85-22.25-6.85-35.14v-82.77h0c9.9,0,17.92,8.02,17.92,17.92v64.85Z"/>
  <path class="st0" d="M300.97,681.97c0,6.77-3.38,10.16-10.14,10.16h-7.78v-117.91h17.92v26.17c5.19-9.27,12.5-16.47,21.93-21.58,9.43-5.1,20.43-7.66,33.01-7.66,10.69,0,20.43,1.5,29.24,4.48,8.8,2.99,16.35,7.19,22.64,12.61,6.29,5.43,11.16,11.95,14.62,19.57,3.46,7.63,5.19,16.08,5.19,25.35v58.95h-17.92v-59.08c0-8.19-1.26-15.56-3.77-22.09-2.52-6.54-6.13-12.13-10.85-16.78-4.71-4.65-10.46-8.19-17.21-10.64-6.76-2.44-14.31-3.66-22.64-3.66-16.82,0-30.07,4.77-39.73,14.3-9.67,9.53-14.5,22.49-14.5,38.87v48.92Z"/>
  <path class="st0" d="M448.53,537.2c0-3.61,1.02-6.44,3.07-8.49,2.04-2.04,4.87-3.07,8.49-3.07s6.21,1.02,8.25,3.07c2.04,2.05,3.07,4.87,3.07,8.49,0,3.3-1.03,5.98-3.07,8.02-2.04,2.05-4.8,3.07-8.25,3.07s-6.45-1.02-8.49-3.07c-2.04-2.04-3.07-4.72-3.07-8.02ZM468.58,574.23v107.77c0,6.76-3.46,10.14-10.38,10.14h-7.55v-117.91h17.92Z"/>
  <path class="st0" d="M607.42,527.06h10.61l101.64,165.07h-20.99s-31.83-51.88-31.83-51.88h-122.15l-27.73,42.96c-3.59,5.56-9.75,8.92-16.37,8.92h0l106.82-165.07ZM661.42,631.53l-54-87.73-56.83,87.73h110.83Z"/>
  <path class="st0" d="M864.24,655.06c.44,5.5-1.43,13.84-4.55,18.39s-7.64,8.54-13.48,11.85c-5.82,3.3-12.7,5.86-20.64,7.66-7.94,1.8-16.78,2.71-26.53,2.71-20.6,0-37.58-3.69-50.93-11.08-13.37-7.39-22.09-17.84-26.17-31.36h.48c4.89,0,9.32,2.67,11.85,6.87,4.57,7.58,11.34,13.66,20.33,18.25,11.56,5.9,25.43,8.76,41.62,8.61,5.97,0,11.98-.71,18.04-2.12,6.05-1.41,11.48-3.42,16.27-6.01,4.8-2.59,8.69-5.66,11.67-9.19,2.98-3.54,4.4-7.43,4.25-11.67-.16-4.4-2.01-7.7-5.54-9.9-3.54-2.2-8.1-3.85-13.68-4.95-5.58-1.1-11.95-1.77-19.1-2.01s-14.42-.55-21.81-.94c-7.39-.39-14.58-1.1-21.57-2.12-7-1.02-13.25-2.71-18.75-5.07-5.5-2.36-9.94-5.74-13.32-10.14-3.38-4.4-5.07-10.14-5.07-17.21,0-5.34,1.53-10.18,4.6-14.5,3.06-4.32,7.39-8.02,12.97-11.08,5.58-3.07,12.34-5.42,20.28-7.07,7.94-1.65,16.7-2.48,26.29-2.48,18.71,0,33.84,3.26,45.39,9.78,11.56,6.53,18.67,15.92,21.34,28.18h0c-4.88,0-9.35-2.69-11.66-6.99-3.46-6.45-8.58-11.47-15.34-15.06-9.04-4.79-20.95-7.19-35.73-7.19-7.23,0-13.91.63-20.04,1.89-6.13,1.26-11.44,2.95-15.92,5.07-4.48,2.12-7.98,4.64-10.49,7.55-2.52,2.91-3.78,6.09-3.78,9.55,0,4.87,1.69,8.65,5.07,11.32,3.38,2.67,7.86,4.64,13.44,5.9,5.58,1.26,11.91,2.04,18.98,2.36,7.08.32,14.34.67,21.81,1.06,7.47.4,14.78,1.06,21.93,2.01,7.15.94,13.52,2.6,19.1,4.95,5.58,2.36,10.06,5.74,13.44,10.14,2.84,3.7,4.49,8.4,4.94,14.1Z"/>
  <path class="st0" d="M943.14,624.45l86.31,67.68h-8.69c-12.86,0-25.34-4.31-35.46-12.25l-57.73-45.29-23.11,14.86v32.54c0,6.76-3.46,10.14-10.37,10.14h-7.55v-165.07h0c9.9,0,17.92,8.02,17.92,17.92v93.85s90.08-58.21,90.08-58.21c6.46-4.18,14-6.4,21.69-6.4h4.01l-77.11,50.23Z"/>
</svg>